               /* XPM */
                static char * partdesign_xpm[] = {
                "16 16 9 1",
                " 	c None",
                ".	c #040006",
                "+	c #070F38",
                "@	c #002196",
                "#	c #0030F3",
                "$	c #5A4D20",
                "%	c #858EB2",
                "&	c #DEB715",
                "*	c #BFB99D",
                " &    ........  ",
                "&&&$..@@@@@@+...",
                "&&&&$@#####@..@.",
                "&&&&&$......@#@.",
                "&&&&&&@@@+.###@.",
                "$&&&&&&@#@.###@.",
                ".$&&&&&%#@.###@.",
                ".@*&&&*%#@.###@.",
                ".@#*&**%#@.###@.",
                ".@#@%%%.@@.###@.",
                ".@@@@@@@#@.###@.",
                ".@#######@.###@.",
                ".@#######@.##+. ",
                ".+@@@####@.@..  ",
                " ......+++..    ",
                "        ...     "};
  
